<svg width="19" height="3" viewBox="0 0 19 3" fill="none" xmlns="http://www.w3.org/2000/svg">
  <path fill-rule="evenodd" clip-rule="evenodd" d="M7 1.5C7 2.32843 6.32843 3 5.5 3C4.67157 3 4 2.32843 4 1.5C4 0.671573 4.67157 5.66094e-08 5.5 1.26441e-07C6.32843 1.96272e-07 7 0.671573 7 1.5Z" fill="currentColor"></path>
  <path fill-rule="evenodd" clip-rule="evenodd" d="M3 1.5C3 2.32843 2.32843 3 1.5 3C0.671573 3 -1.96272e-07 2.32843 -1.26441e-07 1.5C-5.66094e-08 0.671573 0.671573 5.66094e-08 1.5 1.26441e-07C2.32843 1.96272e-07 3 0.671573 3 1.5Z" fill="currentColor"></path>
  <path fill-rule="evenodd" clip-rule="evenodd" d="M11 1.5C11 2.32843 10.3284 3 9.5 3C8.67157 3 8 2.32843 8 1.5C8 0.671573 8.67157 5.66094e-08 9.5 1.26441e-07C10.3284 1.96272e-07 11 0.671573 11 1.5Z" fill="currentColor"></path>
  <path fill-rule="evenodd" clip-rule="evenodd" d="M15 1.5C15 2.32843 14.3284 3 13.5 3C12.6716 3 12 2.32843 12 1.5C12 0.671573 12.6716 5.66094e-08 13.5 1.26441e-07C14.3284 1.96272e-07 15 0.671573 15 1.5Z" fill="currentColor"></path>
  <path fill-rule="evenodd" clip-rule="evenodd" d="M19 1.5C19 2.32843 18.3284 3 17.5 3C16.6716 3 16 2.32843 16 1.5C16 0.671573 16.6716 5.66094e-08 17.5 1.26441e-07C18.3284 1.96272e-07 19 0.671573 19 1.5Z" fill="currentColor"></path>
</svg>