<svg width="19" height="19" viewBox="0 0 19 19" fill="none" xmlns="http://www.w3.org/2000/svg">
  <path fill-rule="evenodd" clip-rule="evenodd" d="M7 9.5C7 10.3284 6.32843 11 5.5 11C4.67157 11 4 10.3284 4 9.5C4 8.67157 4.67157 8 5.5 8C6.32843 8 7 8.67157 7 9.5Z" fill="#FAD5A5"></path>
  <path fill-rule="evenodd" clip-rule="evenodd" d="M3 9.5C3 10.3284 2.32843 11 1.5 11C0.671573 11 -1.96272e-07 10.3284 -1.26441e-07 9.5C-5.66094e-08 8.67157 0.671573 8 1.5 8C2.32843 8 3 8.67157 3 9.5Z" fill="#FAD5A5"></path>
  <path fill-rule="evenodd" clip-rule="evenodd" d="M11 9.5C11 10.3284 10.3284 11 9.5 11C8.67157 11 8 10.3284 8 9.5C8 8.67157 8.67157 8 9.5 8C10.3284 8 11 8.67157 11 9.5Z" fill="#FAD5A5"></path>
  <path fill-rule="evenodd" clip-rule="evenodd" d="M11 5.5C11 6.32843 10.3284 7 9.5 7C8.67157 7 8 6.32843 8 5.5C8 4.67157 8.67157 4 9.5 4C10.3284 4 11 4.67157 11 5.5Z" fill="#FAD5A5"></path>
  <path fill-rule="evenodd" clip-rule="evenodd" d="M11 1.5C11 2.32843 10.3284 3 9.5 3C8.67157 3 8 2.32843 8 1.5C8 0.671573 8.67157 5.66094e-08 9.5 1.26441e-07C10.3284 1.96272e-07 11 0.671573 11 1.5Z" fill="#FAD5A5"></path>
  <path fill-rule="evenodd" clip-rule="evenodd" d="M11 13.5C11 14.3284 10.3284 15 9.5 15C8.67157 15 8 14.3284 8 13.5C8 12.6716 8.67157 12 9.5 12C10.3284 12 11 12.6716 11 13.5Z" fill="#FAD5A5"></path>
  <path fill-rule="evenodd" clip-rule="evenodd" d="M11 17.5C11 18.3284 10.3284 19 9.5 19C8.67157 19 8 18.3284 8 17.5C8 16.6716 8.67157 16 9.5 16C10.3284 16 11 16.6716 11 17.5Z" fill="#FAD5A5"></path>
  <path fill-rule="evenodd" clip-rule="evenodd" d="M15 9.5C15 10.3284 14.3284 11 13.5 11C12.6716 11 12 10.3284 12 9.5C12 8.67157 12.6716 8 13.5 8C14.3284 8 15 8.67157 15 9.5Z" fill="#FAD5A5"></path>
  <path fill-rule="evenodd" clip-rule="evenodd" d="M19 9.5C19 10.3284 18.3284 11 17.5 11C16.6716 11 16 10.3284 16 9.5C16 8.67157 16.6716 8 17.5 8C18.3284 8 19 8.67157 19 9.5Z" fill="#FAD5A5"></path>
</svg>