<svg width="19" height="19" viewBox="0 0 19 19" fill="none" xmlns="http://www.w3.org/2000/svg">
  <path fill-rule="evenodd" clip-rule="evenodd" d="M10.7043 10.7356C11.4031 10.0368 11.4068 8.90747 10.7126 8.2132C10.0183 7.51894 8.88898 7.52264 8.19015 8.22147C7.49132 8.9203 7.48762 10.0496 8.18188 10.7439C8.87615 11.4382 10.0055 11.4345 10.7043 10.7356Z" fill="#B2B6C3"/>
  <path fill-rule="evenodd" clip-rule="evenodd" d="M7.56173 7.59293C8.26056 6.8941 8.26426 5.76477 7.57 5.0705C6.87573 4.37624 5.7464 4.37994 5.04757 5.07877C4.34874 5.7776 4.34504 6.90693 5.03931 7.60119C5.73357 8.29546 6.8629 8.29176 7.56173 7.59293Z" fill="#B2B6C3"/>
  <path fill-rule="evenodd" clip-rule="evenodd" d="M13.8676 7.57218C14.5665 6.87334 14.5702 5.74402 13.8759 5.04975C13.1816 4.35548 12.0523 4.35919 11.3535 5.05802C10.6546 5.75685 10.6509 6.88618 11.3452 7.58044C12.0395 8.27471 13.1688 8.27101 13.8676 7.57218Z" fill="#B2B6C3"/>
  <path fill-rule="evenodd" clip-rule="evenodd" d="M7.56149 11.3597C8.26032 12.0585 8.26402 13.1879 7.56975 13.8821C6.87549 14.5764 5.74616 14.5727 5.04733 13.8739C4.3485 13.175 4.3448 12.0457 5.03906 11.3514C5.73333 10.6572 6.86265 10.6609 7.56149 11.3597Z" fill="#B2B6C3"/>
  <path fill-rule="evenodd" clip-rule="evenodd" d="M13.8674 11.3805C14.5662 12.0793 14.5699 13.2086 13.8757 13.9029C13.1814 14.5972 12.0521 14.5935 11.3532 13.8946C10.6544 13.1958 10.6507 12.0665 11.345 11.3722C12.0392 10.6779 13.1686 10.6816 13.8674 11.3805Z" fill="#B2B6C3"/>
</svg>
